REM DIRINDEX 1\2,1\3,1\4,1\5
REM DIRNAME cjc004,folder01,folder02,folder03,folder04
TITLE ""
FILE "1Q_t_0353-0362.mp3" MP3
  TRACK 01 AUDIO
    TITLE "3:cjc004_1960"
    INDEX 01 00:00:00
  TRACK 02 AUDIO
    TITLE "0:"
    INDEX 01 00:01:03
  TRACK 03 AUDIO
    TITLE "4:cjc004_1961"
    INDEX 01 00:01:34
  TRACK 04 AUDIO
    TITLE "0:"
    INDEX 01 00:02:42
  TRACK 05 AUDIO
    TITLE "5:cjc004_1962"
    INDEX 01 00:02:65
  TRACK 06 AUDIO
    TITLE "0:"
    INDEX 01 00:07:64
  TRACK 07 AUDIO
    TITLE "3:cjc004_1963"
    INDEX 01 00:08:46
  TRACK 08 AUDIO
    TITLE "0:"
    INDEX 01 00:09:63
  TRACK 09 AUDIO
    TITLE "4:cjc004_1964"
    INDEX 01 00:10:16
  TRACK 10 AUDIO
    TITLE "0:"
    INDEX 01 00:11:17
  TRACK 11 AUDIO
    TITLE "5:cjc004_1965"
    INDEX 01 00:11:46
  TRACK 12 AUDIO
    TITLE "0:"
    INDEX 01 00:15:54
  TRACK 13 AUDIO
    TITLE "3:cjc004_1966"
    INDEX 01 00:16:28
  TRACK 14 AUDIO
    TITLE "0:"
    INDEX 01 00:17:47
  TRACK 15 AUDIO
    TITLE "4:cjc004_1967"
    INDEX 01 00:18:01
  TRACK 16 AUDIO
    TITLE "0:"
    INDEX 01 00:19:24
  TRACK 17 AUDIO
    TITLE "5:cjc004_1968"
    INDEX 01 00:19:60
  TRACK 18 AUDIO
    TITLE "0:"
    INDEX 01 00:24:72
  TRACK 19 AUDIO
    TITLE "3:cjc004_1969"
    INDEX 01 00:25:48
  TRACK 20 AUDIO
    TITLE "0:"
    INDEX 01 00:26:67
  TRACK 21 AUDIO
    TITLE "4:cjc004_1970"
    INDEX 01 00:27:16
  TRACK 22 AUDIO
    TITLE "0:"
    INDEX 01 00:28:12
  TRACK 23 AUDIO
    TITLE "5:cjc004_1971"
    INDEX 01 00:28:37
  TRACK 24 AUDIO
    TITLE "0:"
    INDEX 01 00:33:24
  TRACK 25 AUDIO
    TITLE "3:cjc004_1972"
    INDEX 01 00:34:06
  TRACK 26 AUDIO
    TITLE "0:"
    INDEX 01 00:35:12
  TRACK 27 AUDIO
    TITLE "4:cjc004_1973"
    INDEX 01 00:35:45
  TRACK 28 AUDIO
    TITLE "0:"
    INDEX 01 00:36:60
  TRACK 29 AUDIO
    TITLE "5:cjc004_1974"
    INDEX 01 00:37:12
  TRACK 30 AUDIO
    TITLE "0:"
    INDEX 01 00:40:36
  TRACK 31 AUDIO
    TITLE "3:cjc004_1975"
    INDEX 01 00:41:18
  TRACK 32 AUDIO
    TITLE "0:"
    INDEX 01 00:42:12
  TRACK 33 AUDIO
    TITLE "4:cjc004_1976"
    INDEX 01 00:42:43
  TRACK 34 AUDIO
    TITLE "0:"
    INDEX 01 00:43:54
  TRACK 35 AUDIO
    TITLE "5:cjc004_1977"
    INDEX 01 00:44:09
  TRACK 36 AUDIO
    TITLE "0:"
    INDEX 01 00:47:68
  TRACK 37 AUDIO
    TITLE "3:cjc004_1978"
    INDEX 01 00:48:48
  TRACK 38 AUDIO
    TITLE "0:"
    INDEX 01 00:49:74
  TRACK 39 AUDIO
    TITLE "4:cjc004_1979"
    INDEX 01 00:50:27
  TRACK 40 AUDIO
    TITLE "0:"
    INDEX 01 00:51:32
  TRACK 41 AUDIO
    TITLE "5:cjc004_1980"
    INDEX 01 00:51:58
  TRACK 42 AUDIO
    TITLE "0:"
    INDEX 01 00:56:37
  TRACK 43 AUDIO
    TITLE "3:cjc004_1981"
    INDEX 01 00:57:15
  TRACK 44 AUDIO
    TITLE "0:"
    INDEX 01 00:58:09
  TRACK 45 AUDIO
    TITLE "4:cjc004_1982"
    INDEX 01 00:58:34
  TRACK 46 AUDIO
    TITLE "0:"
    INDEX 01 00:59:38
  TRACK 47 AUDIO
    TITLE "5:cjc004_1983"
    INDEX 01 00:59:59
  TRACK 48 AUDIO
    TITLE "0:"
    INDEX 01 01:03:59
  TRACK 49 AUDIO
    TITLE "3:cjc004_1984"
    INDEX 01 01:04:41
  TRACK 50 AUDIO
    TITLE "0:"
    INDEX 01 01:05:56
  TRACK 51 AUDIO
    TITLE "4:cjc004_1985"
    INDEX 01 01:06:16
  TRACK 52 AUDIO
    TITLE "0:"
    INDEX 01 01:07:17
  TRACK 53 AUDIO
    TITLE "5:cjc004_1986"
    INDEX 01 01:07:41
  TRACK 54 AUDIO
    TITLE "0:"
    INDEX 01 01:12:42
  TRACK 55 AUDIO
    TITLE "3:cjc004_1987"
    INDEX 01 01:13:22
  TRACK 56 AUDIO
    TITLE "0:"
    INDEX 01 01:14:51
  TRACK 57 AUDIO
    TITLE "4:cjc004_1988"
    INDEX 01 01:15:05
  TRACK 58 AUDIO
    TITLE "0:"
    INDEX 01 01:16:48
  TRACK 59 AUDIO
    TITLE "5:cjc004_1989"
    INDEX 01 01:16:73
  TRACK 60 AUDIO
    TITLE "0:"
    INDEX 01 01:21:06
